<svg width="12" height="14" viewBox="0 0 12 14" fill="none" xmlns="http://www.w3.org/2000/svg">
<path d="M3.33333 8.33335C3.14445 8.33335 2.986 8.26935 2.858 8.14135C2.73 8.01335 2.66622 7.85512 2.66667 7.66668C2.66667 7.47779 2.73067 7.31935 2.85867 7.19135C2.98667 7.06335 3.14489 6.99957 3.33333 7.00001C3.52222 7.00001 3.68067 7.06401 3.80867 7.19201C3.93667 7.32001 4.00045 7.47823 4 7.66668C4 7.85557 3.936 8.01401 3.808 8.14201C3.68 8.27001 3.52178 8.33379 3.33333 8.33335ZM6 8.33335C5.81111 8.33335 5.65267 8.26935 5.52467 8.14135C5.39667 8.01335 5.33289 7.85512 5.33333 7.66668C5.33333 7.47779 5.39734 7.31935 5.52533 7.19135C5.65333 7.06335 5.81156 6.99957 6 7.00001C6.18889 7.00001 6.34733 7.06401 6.47534 7.19201C6.60333 7.32001 6.66711 7.47823 6.66667 7.66668C6.66667 7.85557 6.60267 8.01401 6.47467 8.14201C6.34667 8.27001 6.18845 8.33379 6 8.33335ZM8.66667 8.33335C8.47778 8.33335 8.31933 8.26935 8.19133 8.14135C8.06333 8.01335 7.99956 7.85512 8 7.66668C8 7.47779 8.064 7.31935 8.192 7.19135C8.32 7.06335 8.47822 6.99957 8.66667 7.00001C8.85556 7.00001 9.014 7.06401 9.142 7.19201C9.27 7.32001 9.33378 7.47823 9.33333 7.66668C9.33333 7.85557 9.26933 8.01401 9.14133 8.14201C9.01334 8.27001 8.85511 8.33379 8.66667 8.33335ZM1.33333 13.6667C0.966668 13.6667 0.652668 13.536 0.391334 13.2747C0.130001 13.0133 -0.000443313 12.6996 1.13186e-06 12.3333V3.00001C1.13186e-06 2.63335 0.130668 2.31935 0.392001 2.05801C0.653334 1.79668 0.967112 1.66623 1.33333 1.66668H2V1.00001C2 0.811124 2.064 0.652679 2.192 0.524679C2.32 0.396679 2.47822 0.332901 2.66667 0.333346C2.85556 0.333346 3.014 0.397346 3.142 0.525346C3.27 0.653346 3.33378 0.811568 3.33333 1.00001V1.66668H8.66667V1.00001C8.66667 0.811124 8.73067 0.652679 8.85867 0.524679C8.98667 0.396679 9.14489 0.332901 9.33333 0.333346C9.52222 0.333346 9.68067 0.397346 9.80867 0.525346C9.93667 0.653346 10.0004 0.811568 10 1.00001V1.66668H10.6667C11.0333 1.66668 11.3473 1.79735 11.6087 2.05868C11.87 2.32001 12.0004 2.63379 12 3.00001V12.3333C12 12.7 11.8693 13.014 11.608 13.2753C11.3467 13.5367 11.0329 13.6671 10.6667 13.6667H1.33333ZM1.33333 12.3333H10.6667V5.66668H1.33333V12.3333Z" fill="#5B5F6E"/>
</svg>
