<svg width="16" height="16" viewBox="0 0 16 16" fill="none" xmlns="http://www.w3.org/2000/svg">
<path d="M8.00004 14.6666C4.32671 14.6666 1.33337 11.6733 1.33337 7.99992C1.33337 4.32659 4.32671 1.33325 8.00004 1.33325C11.6734 1.33325 14.6667 4.02659 14.6667 7.33325C14.6667 9.53992 12.8734 11.3333 10.6667 11.3333H9.48671C9.30004 11.3333 9.15337 11.4799 9.15337 11.6666C9.15337 11.7466 9.18671 11.8199 9.24004 11.8866C9.51337 12.1999 9.66671 12.5933 9.66671 12.9999C9.66671 13.4419 9.49111 13.8659 9.17855 14.1784C8.86599 14.491 8.44207 14.6666 8.00004 14.6666ZM8.00004 2.66659C5.06004 2.66659 2.66671 5.05992 2.66671 7.99992C2.66671 10.9399 5.06004 13.3333 8.00004 13.3333C8.18671 13.3333 8.33337 13.1866 8.33337 12.9999C8.3313 12.9135 8.29817 12.8306 8.24004 12.7666C7.96671 12.4599 7.82004 12.0666 7.82004 11.6666C7.82004 11.2246 7.99563 10.8006 8.3082 10.4881C8.62076 10.1755 9.04468 9.99992 9.48671 9.99992H10.6667C12.14 9.99992 13.3334 8.80658 13.3334 7.33325C13.3334 4.75992 10.94 2.66659 8.00004 2.66659Z" fill="#5B5F6E"/>
<path d="M4.33337 8.66656C4.88566 8.66656 5.33337 8.21885 5.33337 7.66656C5.33337 7.11428 4.88566 6.66656 4.33337 6.66656C3.78109 6.66656 3.33337 7.11428 3.33337 7.66656C3.33337 8.21885 3.78109 8.66656 4.33337 8.66656Z" fill="#5B5F6E"/>
<path d="M6.33337 5.99991C6.88566 5.99991 7.33337 5.55219 7.33337 4.99991C7.33337 4.44762 6.88566 3.99991 6.33337 3.99991C5.78109 3.99991 5.33337 4.44762 5.33337 4.99991C5.33337 5.55219 5.78109 5.99991 6.33337 5.99991Z" fill="#5B5F6E"/>
<path d="M9.66675 5.99991C10.219 5.99991 10.6667 5.55219 10.6667 4.99991C10.6667 4.44762 10.219 3.99991 9.66675 3.99991C9.11446 3.99991 8.66675 4.44762 8.66675 4.99991C8.66675 5.55219 9.11446 5.99991 9.66675 5.99991Z" fill="#5B5F6E"/>
<path d="M11.6667 8.66656C12.219 8.66656 12.6667 8.21885 12.6667 7.66656C12.6667 7.11428 12.219 6.66656 11.6667 6.66656C11.1145 6.66656 10.6667 7.11428 10.6667 7.66656C10.6667 8.21885 11.1145 8.66656 11.6667 8.66656Z" fill="#5B5F6E"/>
</svg>
