<svg width="13" height="13" viewBox="0 0 13 13" fill="none" xmlns="http://www.w3.org/2000/svg">
<path d="M5.17068 3.11333L9.88401 7.82733L5.10201 12.61C4.88066 12.8313 4.58849 12.9678 4.27668 12.9953L4.15934 13H0.670678C0.504796 13 0.34475 12.9388 0.221231 12.828C0.0977113 12.7173 0.0194114 12.5649 0.001345 12.4L-0.00265503 12.3267V8.838C-0.00257854 8.52497 0.107634 8.22194 0.308678 7.982L0.388678 7.89534L5.17068 3.11333ZM7.26401 1.02C7.49995 0.784036 7.81579 0.645116 8.14917 0.630675C8.48254 0.616234 8.80922 0.727322 9.06468 0.942002L9.14934 1.02L11.978 3.84867C12.2138 4.08457 12.3526 4.40028 12.367 4.7335C12.3815 5.06672 12.2705 5.39325 12.056 5.64867L11.978 5.734L10.8273 6.88467L6.11401 2.17067L7.26401 1.02Z" fill="#323749"/>
</svg>
